<svg width="97" height="108" viewBox="0 0 97 108" fill="none" xmlns="http://www.w3.org/2000/svg">
<path d="M82.0624 35.7627C82.0624 16.7911 66.6787 1.43081 47.7305 1.43081C28.7823 1.43081 13.3986 16.8145 13.3986 35.7627C13.3986 54.711 47.7305 105.107 47.7305 105.107C47.7305 105.107 82.0624 54.711 82.0624 35.7627Z" fill="url(#paint0_linear_1_158)"/>
<path d="M47.7071 0.234749C28.1257 0.234749 12.2026 16.1578 12.2026 35.7392C12.2026 55.3206 45.3386 103.676 46.7456 105.763L47.7071 107.194L48.6686 105.763C50.0756 103.7 83.2116 54.8516 83.2116 35.7392C83.2116 16.6268 67.2885 0.234749 47.7071 0.234749ZM47.7071 102.996C42.1493 94.6476 14.5477 52.3658 14.5477 35.7392C14.5477 17.4476 29.439 2.57983 47.7071 2.57983C65.9753 2.57983 80.8665 17.4711 80.8665 35.7392C80.8665 52.3658 53.2649 94.6241 47.7071 102.996Z" fill="url(#paint1_linear_1_158)"/>
<path d="M78.0759 35.7627C78.0759 18.9954 64.4744 5.41742 47.7306 5.41742C30.9867 5.41742 17.3853 19.0189 17.3853 35.7627C17.3853 52.5066 30.9867 66.108 47.7306 66.108C64.4744 66.108 78.0759 52.5066 78.0759 35.7627Z" fill="url(#paint2_linear_1_158)"/>
<path d="M73.9253 35.7628C73.9253 21.2936 62.1999 9.56826 47.7308 9.56826C33.2616 9.56826 21.5363 21.2936 21.5363 35.7628C21.5363 50.2319 33.2616 61.9573 47.7308 61.9573C62.1999 61.9573 73.9253 50.2319 73.9253 35.7628Z" fill="#1C1D6E"/>
<defs>
<linearGradient id="paint0_linear_1_158" x1="32.8063" y1="98.7081" x2="75.2883" y2="19.2037" gradientUnits="userSpaceOnUse">
<stop stop-color="#5977C4"/>
<stop offset="1" stop-color="#54268D"/>
</linearGradient>
<linearGradient id="paint1_linear_1_158" x1="21.8736" y1="76.675" x2="77.3072" y2="21.7141" gradientUnits="userSpaceOnUse">
<stop stop-color="#789CD2"/>
<stop offset="0.48" stop-color="#403EA6"/>
<stop offset="1" stop-color="#3E1E72"/>
</linearGradient>
<linearGradient id="paint2_linear_1_158" x1="25.651" y1="48.7911" x2="54.7353" y2="5.35555" gradientUnits="userSpaceOnUse">
<stop stop-color="#789CD2"/>
<stop offset="0.48" stop-color="#403EA6"/>
<stop offset="1" stop-color="#3E1E72"/>
</linearGradient>
</defs>
</svg>
