<svg width="566" height="566" viewBox="0 0 566 566" fill="none" xmlns="http://www.w3.org/2000/svg">
<path fill-rule="evenodd" clip-rule="evenodd" d="M565.183 282.591C565.183 438.662 438.662 565.183 282.591 565.183C126.52 565.183 0 438.662 0 282.591C0 126.52 126.52 0 282.591 0C438.662 0 565.183 126.52 565.183 282.591ZM282.617 518.261C412.628 518.261 518.022 412.867 518.022 282.857C518.022 152.847 412.628 47.453 282.617 47.453C152.607 47.453 47.2133 152.847 47.2133 282.857C47.2133 412.867 152.607 518.261 282.617 518.261Z" fill="url(#paint0_linear_1_153)"/>
<path fill-rule="evenodd" clip-rule="evenodd" d="M540.233 282.677C540.233 425.435 424.505 541.163 281.747 541.163C138.989 541.163 23.2614 425.435 23.2614 282.677C23.2614 139.92 138.989 24.1917 281.747 24.1917C424.505 24.1917 540.233 139.92 540.233 282.677ZM282.704 518.347C412.714 518.347 518.108 412.953 518.108 282.943C518.108 152.933 412.714 47.5391 282.704 47.5391C152.694 47.5391 47.2995 152.933 47.2995 282.943C47.2995 412.953 152.694 518.347 282.704 518.347Z" fill="url(#paint1_linear_1_153)" fill-opacity="0.8"/>
<path fill-rule="evenodd" clip-rule="evenodd" d="M522.883 283.307C522.883 416.135 415.205 523.814 282.377 523.814C149.549 523.814 41.8704 416.135 41.8704 283.307C41.8704 150.479 149.549 42.8008 282.377 42.8008C415.205 42.8008 522.883 150.479 522.883 283.307ZM282.402 518.562C412.307 518.562 517.657 413.238 517.657 283.307C517.657 153.352 412.357 48.0269 282.402 48.0269C152.446 48.0269 47.1216 153.377 47.1216 283.307C47.1216 413.238 152.496 518.562 282.402 518.562Z" fill="url(#paint2_linear_1_153)"/>
<defs>
<linearGradient id="paint0_linear_1_153" x1="76.9745" y1="161.264" x2="347.824" y2="565.759" gradientUnits="userSpaceOnUse">
<stop stop-color="#789CD2"/>
<stop offset="0.48" stop-color="#403EA6"/>
<stop offset="1" stop-color="#3E1E72"/>
</linearGradient>
<linearGradient id="paint1_linear_1_153" x1="169.383" y1="56.0978" x2="329.662" y2="509.009" gradientUnits="userSpaceOnUse">
<stop stop-color="#5977C4"/>
<stop offset="1" stop-color="#54268D"/>
</linearGradient>
<linearGradient id="paint2_linear_1_153" x1="107.381" y1="180.049" x2="337.894" y2="524.304" gradientUnits="userSpaceOnUse">
<stop stop-color="#789CD2"/>
<stop offset="0.48" stop-color="#403EA6"/>
<stop offset="1" stop-color="#3E1E72"/>
</linearGradient>
</defs>
</svg>
