<svg width="160" height="160" viewBox="0 0 160 160" fill="none" xmlns="http://www.w3.org/2000/svg">
<circle cx="79.0002" cy="79.1429" r="61.0286" fill="url(#paint0_linear_1_146)"/>
<g filter="url(#filter0_d_1_146)">
<mask id="path-2-inside-1_1_146" fill="white">
<path fill-rule="evenodd" clip-rule="evenodd" d="M78.9999 155.429C36.8685 155.429 2.71422 121.274 2.71422 79.143C2.71422 37.0115 36.8685 2.85724 78.9999 2.85724C121.131 2.85724 155.286 37.0115 155.286 79.143C155.286 121.274 121.131 155.429 78.9999 155.429ZM79 140.172C45.2948 140.172 17.9714 112.848 17.9714 79.143C17.9714 45.4378 45.2948 18.1144 79 18.1144C112.705 18.1144 140.029 45.4378 140.029 79.143C140.029 112.848 112.705 140.172 79 140.172Z"/>
</mask>
<path fill-rule="evenodd" clip-rule="evenodd" d="M78.9999 155.429C36.8685 155.429 2.71422 121.274 2.71422 79.143C2.71422 37.0115 36.8685 2.85724 78.9999 2.85724C121.131 2.85724 155.286 37.0115 155.286 79.143C155.286 121.274 121.131 155.429 78.9999 155.429ZM79 140.172C45.2948 140.172 17.9714 112.848 17.9714 79.143C17.9714 45.4378 45.2948 18.1144 79 18.1144C112.705 18.1144 140.029 45.4378 140.029 79.143C140.029 112.848 112.705 140.172 79 140.172Z" fill="url(#paint1_linear_1_146)"/>
<path d="M3.80402 79.143C3.80402 120.673 37.4704 154.339 78.9999 154.339V156.518C36.2666 156.518 1.62442 121.876 1.62442 79.143H3.80402ZM78.9999 3.94703C37.4704 3.94703 3.80402 37.6134 3.80402 79.143H1.62442C1.62442 36.4096 36.2666 1.76744 78.9999 1.76744V3.94703ZM154.196 79.143C154.196 37.6134 120.529 3.94703 78.9999 3.94703V1.76744C121.733 1.76744 156.375 36.4096 156.375 79.143H154.196ZM78.9999 154.339C120.529 154.339 154.196 120.673 154.196 79.143H156.375C156.375 121.876 121.733 156.518 78.9999 156.518V154.339ZM19.0612 79.143C19.0612 112.246 45.8967 139.082 79 139.082V141.261C44.693 141.261 16.8816 113.45 16.8816 79.143H19.0612ZM79 19.2042C45.8967 19.2042 19.0612 46.0397 19.0612 79.143H16.8816C16.8816 44.8359 44.693 17.0246 79 17.0246V19.2042ZM138.939 79.143C138.939 46.0397 112.103 19.2042 79 19.2042V17.0246C113.307 17.0246 141.118 44.8359 141.118 79.143H138.939ZM79 139.082C112.103 139.082 138.939 112.246 138.939 79.143H141.118C141.118 113.45 113.307 141.261 79 141.261V139.082Z" fill="url(#paint2_linear_1_146)" fill-opacity="0.5" mask="url(#path-2-inside-1_1_146)"/>
</g>
<g filter="url(#filter1_d_1_146)">
<circle cx="79.0005" cy="79.1429" r="27.4286" fill="#6276C0"/>
</g>
<defs>
<filter id="filter0_d_1_146" x="0.534642" y="0.677647" width="159.11" height="159.11" filterUnits="userSpaceOnUse" color-interpolation-filters="sRGB">
<feFlood flood-opacity="0" result="BackgroundImageFix"/>
<feColorMatrix in="SourceAlpha" type="matrix" values="0 0 0 0 0 0 0 0 0 0 0 0 0 0 0 0 0 0 127 0" result="hardAlpha"/>
<feOffset dx="1.0898" dy="1.0898"/>
<feGaussianBlur stdDeviation="1.63469"/>
<feComposite in2="hardAlpha" operator="out"/>
<feColorMatrix type="matrix" values="0 0 0 0 0.12549 0 0 0 0 0.0431373 0 0 0 0 0.00784314 0 0 0 0.75 0"/>
<feBlend mode="normal" in2="BackgroundImageFix" result="effect1_dropShadow_1_146"/>
<feBlend mode="normal" in="SourceGraphic" in2="effect1_dropShadow_1_146" result="shape"/>
</filter>
<filter id="filter1_d_1_146" x="48.1433" y="51.7143" width="61.7142" height="61.7143" filterUnits="userSpaceOnUse" color-interpolation-filters="sRGB">
<feFlood flood-opacity="0" result="BackgroundImageFix"/>
<feColorMatrix in="SourceAlpha" type="matrix" values="0 0 0 0 0 0 0 0 0 0 0 0 0 0 0 0 0 0 127 0" result="hardAlpha"/>
<feOffset dy="3.42857"/>
<feGaussianBlur stdDeviation="1.71429"/>
<feComposite in2="hardAlpha" operator="out"/>
<feColorMatrix type="matrix" values="0 0 0 0 0 0 0 0 0 0 0 0 0 0 0 0 0 0 0.25 0"/>
<feBlend mode="normal" in2="BackgroundImageFix" result="effect1_dropShadow_1_146"/>
<feBlend mode="normal" in="SourceGraphic" in2="effect1_dropShadow_1_146" result="shape"/>
</filter>
<linearGradient id="paint0_linear_1_146" x1="40.8574" y1="31.1919" x2="112.784" y2="129.818" gradientUnits="userSpaceOnUse">
<stop stop-color="#344692"/>
<stop offset="1" stop-color="#391372"/>
</linearGradient>
<linearGradient id="paint1_linear_1_146" x1="158.337" y1="30.8286" x2="-34.8826" y2="49.3178" gradientUnits="userSpaceOnUse">
<stop stop-color="#490082"/>
<stop offset="0.32" stop-color="#5168B2"/>
<stop offset="0.6" stop-color="#799CD2"/>
<stop offset="0.855" stop-color="#595FB3"/>
</linearGradient>
<linearGradient id="paint2_linear_1_146" x1="95.2585" y1="-17.1805" x2="12.1167" y2="103.486" gradientUnits="userSpaceOnUse">
<stop stop-color="#6C8BC5"/>
<stop offset="1" stop-color="#789CD2"/>
</linearGradient>
</defs>
</svg>
