<svg width="140" height="42" viewBox="0 0 140 42" fill="none" xmlns="http://www.w3.org/2000/svg">
<path d="M133.001 28.0173H111.989V7.01631C111.989 3.15365 108.856 0.0219789 104.991 0.0219789C103.156 0.0219789 101.487 0.727005 100.24 1.88141L100.228 1.89139C100.104 2.00723 99.9823 2.12707 99.8664 2.2509L99.1909 2.92396C99.067 3.03182 98.9471 3.14366 98.8292 3.2595L83.9744 18.105L69.1197 3.2595C69.0077 3.14765 68.8918 3.0398 68.7739 2.93595L68.0605 2.22293C66.7834 0.866804 64.9728 0.0179805 62.9623 0.0179805C59.0973 0.0179805 55.9636 3.14966 55.9636 7.01232V27.9933H42.0242V6.99434C42.0242 3.13168 38.8906 0 35.0255 0C34.8536 0 34.6837 0.00599709 34.5159 0.0179805H6.9987C3.13363 0.0179805 0 3.14966 0 7.01232C0 10.875 3.13363 14.0067 6.9987 14.0067H28.0308V35.473C28.2806 39.108 31.3083 41.982 35.0095 41.982H63.0023C66.6236 41.982 69.6013 39.2338 69.963 35.7127V23.879L79.0202 32.9305C80.3891 34.2986 82.1838 34.9817 83.9784 34.9797C85.7731 34.9817 87.5677 34.2986 88.9367 32.9305L97.9938 23.879V34.9877C97.9938 36.8651 98.7332 38.5687 99.9383 39.825C101.213 41.1651 103.014 42 105.008 42H133.001C136.866 42 140 38.8683 140 35.0057C140 31.143 136.866 28.0113 133.001 28.0113V28.0173Z" fill="#F5BA00"/>
</svg>
