<svg width="57" height="63" viewBox="0 0 57 63" fill="none" xmlns="http://www.w3.org/2000/svg">
<path d="M47.8698 20.8616C47.8698 9.79481 38.896 0.834656 27.8429 0.834656C16.7897 0.834656 7.81592 9.80849 7.81592 20.8616C7.81592 31.9147 27.8429 61.3123 27.8429 61.3123C27.8429 61.3123 47.8698 31.9147 47.8698 20.8616Z" fill="url(#paint0_linear_1_183)"/>
<path d="M27.8291 0.136925C16.4066 0.136925 7.11816 9.42538 7.11816 20.8479C7.11816 32.2703 26.4475 60.4777 27.2682 61.6952L27.8291 62.5297L28.39 61.6952C29.2107 60.4914 48.54 31.9968 48.54 20.8479C48.54 9.69898 39.2516 0.136925 27.8291 0.136925ZM27.8291 60.081C24.587 55.2111 8.48613 30.5467 8.48613 20.8479C8.48613 10.1778 17.1727 1.50489 27.8291 1.50489C38.4855 1.50489 47.1721 10.1914 47.1721 20.8479C47.1721 30.5467 31.0712 55.1974 27.8291 60.081Z" fill="url(#paint1_linear_1_183)"/>
<path d="M45.5442 20.8616C45.5442 11.0806 37.61 3.16013 27.8428 3.16013C18.0755 3.16013 10.1414 11.0943 10.1414 20.8616C10.1414 30.6288 18.0755 38.563 27.8428 38.563C37.61 38.563 45.5442 30.6288 45.5442 20.8616Z" fill="url(#paint2_linear_1_183)"/>
<path d="M43.123 20.8616C43.123 12.4213 36.2832 5.58146 27.8429 5.58146C19.4026 5.58146 12.5627 12.4213 12.5627 20.8616C12.5627 29.3019 19.4026 36.1417 27.8429 36.1417C36.2832 36.1417 43.123 29.3019 43.123 20.8616Z" fill="#1C1D6E"/>
<defs>
<linearGradient id="paint0_linear_1_183" x1="19.1371" y1="57.5797" x2="43.9183" y2="11.2022" gradientUnits="userSpaceOnUse">
<stop stop-color="#5977C4"/>
<stop offset="1" stop-color="#54268D"/>
</linearGradient>
<linearGradient id="paint1_linear_1_183" x1="12.7596" y1="44.7271" x2="45.0958" y2="12.6666" gradientUnits="userSpaceOnUse">
<stop stop-color="#789CD2"/>
<stop offset="0.48" stop-color="#403EA6"/>
<stop offset="1" stop-color="#3E1E72"/>
</linearGradient>
<linearGradient id="paint2_linear_1_183" x1="14.963" y1="28.4615" x2="31.9289" y2="3.12404" gradientUnits="userSpaceOnUse">
<stop stop-color="#789CD2"/>
<stop offset="0.48" stop-color="#403EA6"/>
<stop offset="1" stop-color="#3E1E72"/>
</linearGradient>
</defs>
</svg>
