<svg width="330" height="330" viewBox="0 0 330 330" fill="none" xmlns="http://www.w3.org/2000/svg">
<path fill-rule="evenodd" clip-rule="evenodd" d="M329.69 164.845C329.69 255.886 255.886 329.69 164.845 329.69C73.8036 329.69 0 255.886 0 164.845C0 73.8036 73.8036 0 164.845 0C255.886 0 329.69 73.8036 329.69 164.845ZM164.86 302.319C240.699 302.319 302.179 240.839 302.179 165C302.179 89.1608 240.699 27.6809 164.86 27.6809C89.021 27.6809 27.5411 89.1608 27.5411 165C27.5411 240.839 89.021 302.319 164.86 302.319Z" fill="url(#paint0_linear_1_178)"/>
<path fill-rule="evenodd" clip-rule="evenodd" d="M315.136 164.895C315.136 248.171 247.628 315.679 164.352 315.679C81.0771 315.679 13.5691 248.171 13.5691 164.895C13.5691 81.6199 81.0771 14.1118 164.352 14.1118C247.628 14.1118 315.136 81.6199 315.136 164.895ZM164.91 302.369C240.75 302.369 302.23 240.889 302.23 165.05C302.23 89.211 240.75 27.7311 164.91 27.7311C89.0712 27.7311 27.5914 89.211 27.5914 165.05C27.5914 240.889 89.0712 302.369 164.91 302.369Z" fill="url(#paint1_linear_1_178)" fill-opacity="0.8"/>
<path fill-rule="evenodd" clip-rule="evenodd" d="M305.015 165.263C305.015 242.746 242.203 305.558 164.72 305.558C87.2367 305.558 24.4243 242.746 24.4243 165.263C24.4243 87.7796 87.2367 24.9672 164.72 24.9672C242.203 24.9672 305.015 87.7796 305.015 165.263ZM164.734 302.495C240.513 302.495 301.967 241.055 301.967 165.263C301.967 89.4552 240.542 28.0157 164.734 28.0157C88.927 28.0157 27.4876 89.4698 27.4876 165.263C27.4876 241.055 88.9562 302.495 164.734 302.495Z" fill="url(#paint2_linear_1_178)"/>
<defs>
<linearGradient id="paint0_linear_1_178" x1="44.9018" y1="94.0708" x2="202.897" y2="330.026" gradientUnits="userSpaceOnUse">
<stop stop-color="#789CD2"/>
<stop offset="0.48" stop-color="#403EA6"/>
<stop offset="1" stop-color="#3E1E72"/>
</linearGradient>
<linearGradient id="paint1_linear_1_178" x1="98.8067" y1="32.7237" x2="192.303" y2="296.922" gradientUnits="userSpaceOnUse">
<stop stop-color="#5977C4"/>
<stop offset="1" stop-color="#54268D"/>
</linearGradient>
<linearGradient id="paint2_linear_1_178" x1="62.6391" y1="105.028" x2="197.105" y2="305.844" gradientUnits="userSpaceOnUse">
<stop stop-color="#789CD2"/>
<stop offset="0.48" stop-color="#403EA6"/>
<stop offset="1" stop-color="#3E1E72"/>
</linearGradient>
</defs>
</svg>
