<svg width="437" height="437" viewBox="0 0 437 437" fill="none" xmlns="http://www.w3.org/2000/svg">
<path d="M126.64 435.543L129.808 436.855L310.215 1.3121L307.048 4.07799e-05L126.64 435.543Z" fill="url(#paint0_linear_1_145)"/>
<path d="M0 307.048L1.31206 310.215L436.855 129.807L435.543 126.64L0 307.048Z" fill="url(#paint1_linear_1_145)"/>
<path d="M1.31208 126.64L2.7495e-05 129.807L435.543 310.215L436.855 307.048L1.31208 126.64Z" fill="url(#paint2_linear_1_145)"/>
<path d="M129.808 0L126.64 1.31206L307.048 436.855L310.216 435.543L129.808 0Z" fill="url(#paint3_linear_1_145)"/>
<defs>
<linearGradient id="paint0_linear_1_145" x1="218.428" y1="117.015" x2="218.428" y2="312.04" gradientUnits="userSpaceOnUse">
<stop stop-color="#490082"/>
<stop offset="0.484375" stop-color="#DB00FF"/>
<stop offset="1" stop-color="#490082"/>
</linearGradient>
<linearGradient id="paint1_linear_1_145" x1="218.428" y1="117.015" x2="218.428" y2="312.04" gradientUnits="userSpaceOnUse">
<stop stop-color="#490082"/>
<stop offset="0.484375" stop-color="#DB00FF"/>
<stop offset="1" stop-color="#490082"/>
</linearGradient>
<linearGradient id="paint2_linear_1_145" x1="218.428" y1="117.015" x2="218.428" y2="312.04" gradientUnits="userSpaceOnUse">
<stop stop-color="#490082"/>
<stop offset="0.484375" stop-color="#DB00FF"/>
<stop offset="1" stop-color="#490082"/>
</linearGradient>
<linearGradient id="paint3_linear_1_145" x1="218.428" y1="117.015" x2="218.428" y2="312.04" gradientUnits="userSpaceOnUse">
<stop stop-color="#490082"/>
<stop offset="0.484375" stop-color="#DB00FF"/>
<stop offset="1" stop-color="#490082"/>
</linearGradient>
</defs>
</svg>
